# AST/ASF file generated using VICON BodyLanguage
# -----------------------------------------------
:version 1.10
:name VICON
:units
  mass 1.0
  length 0.45
  angle deg
:documentation
   .ast/.asf automatically generated from VICON data using
   VICON BodyBuilder and BodyLanguage model FoxedUp or BRILLIANT.MOD
:root
   order TX TY TZ RX RY RZ
   axis XYZ
   position 0 0 0  
   orientation 0 0 0 
:bonedata
  begin
     id 1 
     name lhipjoint
     direction 0.625129 -0.738222 0.253461 
     length 2.5165 
     axis 0 0 0  XYZ
  end
  begin
     id 2 
     name lfemur
     direction 0.34202 -0.939693 0  
     length 7.54288  
     axis 0 0 20  XYZ
    dof rx ry rz
    limits (-160.0 20.0)
           (-70.0 70.0)
           (-60.0 70.0)
  end
  begin
     id 3 
     name ltibia
     direction 0.34202 -0.939693 0   
     length 7.71864   
     axis 0 0 20   XYZ
    dof rx
    limits (-10.0 170.0)
  end
  begin
     id 4 
     name lfoot
     direction 0.0772037 -0.212115 0.97419   
     length 2.18429   
     axis -90 7.62852e-016 20   XYZ
    dof rx rz
    limits (-45.0 90.0)
           (-70.0 20.0)
  end
  begin
     id 5 
     name ltoes
     direction 1.53513e-011 -4.21834e-011 1   
     length 1.09718   
     axis -90 7.62852e-016 20   XYZ
    dof rx
    limits (-90.0 20.0)
  end
  begin
     id 6 
     name rhipjoint
     direction -0.621946 -0.740623 0.254285   
     length 2.50835  
     axis 0 0 0  XYZ 
  end
  begin
     id 7 
     name rfemur
     direction -0.34202 -0.939693 0   
     length 7.43366   
     axis 0 0 -20   XYZ
    dof rx ry rz
    limits (-160.0 20.0)
           (-70.0 70.0)
           (-70.0 60.0)
  end
  begin
     id 8 
     name rtibia
     direction -0.34202 -0.939693 0   
     length 7.77122   
     axis 0 0 -20   XYZ
    dof rx
    limits (-10.0 170.0)
 end
 begin
     id 9 
     name rfoot
     direction -0.082694 -0.2272 0.970331   
     length 2.2293  
     axis -90 -7.62852e-016 -20   XYZ
    dof rx rz
    limits (-45.0 90.0)
           (-20.0 70.0)
  end
  begin
     id 10 
     name rtoes
     direction -1.53565e-011 -4.21695e-011 1   
     length 1.1178   
     axis -90 -7.62852e-016 -20   XYZ
    dof rx
    limits (-90.0 20.0)
  end
  begin
     id 11 
     name lowerback
     direction -0.000695208 0.988391 -0.151929   
     length 1.95077   
     axis 0 0 0   XYZ
    dof rx ry rz
    limits (-20.0 45.0)
           (-30.0 30.0)
           (-30.0 30.0)
  end
  begin
     id 12 
     name upperback
     direction -0.00268925 0.999885 -0.0149203   
     length 1.96246   
     axis 0 0 0   XYZ
    dof rx ry rz
    limits (-20.0 45.0)
           (-30.0 30.0)
           (-30.0 30.0)
  end
  begin
     id 13 
     name thorax
     direction -0.000848408 0.998481 0.0550912   
     length 2.00867   
     axis 0 0 0   XYZ
    dof rx ry rz
    limits (-20.0 45.0)
           (-30.0 30.0)
           (-30.0 30.0)
  end
  begin
     id 14 
     name lowerneck
     direction -0.00577709 0.998999 0.0443608   
     length 1.75762   
     axis 0 0 0   XYZ
    dof rx ry rz
    limits (-20.0 45.0)
           (-30.0 30.0)
           (-30.0 30.0)
  end
  begin
     id 15 
     name upperneck
     direction 0.0320945 0.999136 0.0264105   
     length 1.72601   
     axis 0 0 0   XYZ
    dof rx ry rz
    limits (-20.0 45.0)
           (-30.0 30.0)
           (-30.0 30.0)
  end
  begin
     id 16
     name head
     direction 0.0120552 0.999916 0.00480151  
     length 1.79973  
     axis 0 0 0   XYZ
    dof rx ry rz
    limits (-20.0 45.0)
           (-30.0 30.0)
           (-30.0 30.0)
  end
  begin
     id 17 
     name lclavicle
     direction 0.909 0.371533 -0.188897  
     length 3.47956  
     axis 0 0 0   XYZ
    dof ry rz
    limits (-20.0 10.0)
           (0.0 20.0)
  end
  begin
     id 18 
     name lhumerus
     direction 1 -4.48963e-011 -6.48352e-028   
     length 5.52302   
     axis 180 -30 -90   XYZ
    dof rx ry rz
    limits (-60.0 90.0)
           (-90.0 90.0)
           (-90.0 90.0)
  end
  begin
     id 19
     name lradius
     direction 1 -4.48968e-011 -4.78536e-027   
     length 3.58675   
     axis 180 -30 -90   XYZ
    dof rx
    limits (-10.0 170.0)
  end
  begin
     id 20
     name lwrist
     direction 1 -4.48942e-011 -9.9435e-027   
     length 1.79337   
     axis 8.54312e-015 90 90   XYZ
    dof ry
    limits (-180.0 0.0)
 end
  begin
     id 21 
     name lhand
     direction 1 -4.4904e-011 -1.9887e-026   
     length 0.536412   
     axis 1.26896e-014 90 90   XYZ
    dof rx rz
    limits (-90.0 90.0)
           (-45.0 45.0)
  end
  begin
     id 22 
     name lfingers
     direction 1 -4.48893e-011 -3.9774e-026   
     length 0.432469   
     axis 2.53792e-014 90 90   XYZ
    dof rx
    limits (0.0 90.0)
  end
  begin
     id 23
     name lthumb
     direction 0.707107 -6.34934e-011 0.707107   
     length 0.620942   
     axis -90 45 2.85299e-015   XYZ
    dof rx rz
    limits (-45.0 45.0)
           (-45.0 45.0)
  end
  begin
     id 24 
     name rclavicle
     direction -0.89595 0.416672 -0.153813   
     length 3.44099  
     axis 0 0 0   XYZ 
    dof ry rz
    limits (-10.0 20.0)
           (-20.0 0.0)
  end
  begin
     id 25 
     name rhumerus
     direction -1 -4.48952e-011 5.57804e-028  
     length 5.8478   
     axis 180 30 90   XYZ
    dof rx ry rz
    limits (-90.0 60.0)
           (-90.0 90.0)
           (-90.0 90.0)
  end
  begin
     id 26 
     name rradius
     direction -1 -4.48967e-011 -7.93646e-027   
     length 3.62717   
     axis 180 30 90   XYZ
    dof rx
    limits (-10.0 170.0)
  end
  begin
     id 27 
     name rwrist
     direction -1 -4.49008e-011 -9.9435e-027   
     length 1.81359   
     axis 8.54312e-015 -90 -90   XYZ
    dof ry
    limits (-180.0 0.0)
  end
  begin
     id 28
     name rhand
     direction -1 -4.48812e-011 -1.9887e-026   
     length 0.650516   
     axis 1.26896e-014 -90 -90   XYZ
    dof rx rz
    limits (-90.0 90.0)
           (-45.0 45.0)
  end
  begin
     id 29
     name rfingers
     direction -1 -4.49228e-011 -3.9774e-026   
     length 0.524463   
     axis 2.53792e-014 -90 -90   XYZ
    dof rx
    limits (0.0 90.0)
  end
  begin
     id 30
     name rthumb
     direction -0.707107 -6.34912e-011 0.707107   
     length 0.753027   
     axis -90 -45 -2.85299e-015   XYZ
    dof rx rz
    limits (-45.0 45.0)
           (-45.0 45.0)
  end
:hierarchy
  begin
    root lhipjoint rhipjoint lowerback
    lhipjoint lfemur
    lfemur ltibia
    ltibia lfoot
    lfoot ltoes
    rhipjoint rfemur
    rfemur rtibia
    rtibia rfoot
    rfoot rtoes
    lowerback upperback
    upperback thorax
    thorax lowerneck lclavicle rclavicle
    lowerneck upperneck
    upperneck head
    lclavicle lhumerus
    lhumerus lradius
    lradius lwrist
    lwrist lhand lthumb
    lhand lfingers
    rclavicle rhumerus
    rhumerus rradius
    rradius rwrist
    rwrist rhand rthumb
    rhand rfingers
  end

#!OML:ASF F:\VICON\USERDATA\INSTALL\rory3\rory3.ASF
:FULLY-SPECIFIED
:DEGREES
840
root 14.5642 17.8155 3.68172 -183.957 8.81301 -182.35
lowerback 6.7502 -4.14499 -0.552007
upperback 1.61919 -5.38712 1.91452
thorax -1.86302 -2.63364 2.71162
lowerneck -1.18762 -9.29886 -0.301735
upperneck 26.9865 -10.9237 0.30743
head 8.63063 -4.30382 -0.543692
rclavicle -6.78353e-014 9.54166e-015
rhumerus -39.9623 -11.2147 -71.9129
rradius 25.5589
rwrist 19.1063
rhand -16.6414 12.7871
rfingers 7.12502
rthumb 9.58138 -16.975
lclavicle -6.78353e-014 9.54166e-015
lhumerus -23.6105 3.08134 82.7635
lradius 26.3183
lwrist 6.05224
lhand -33.9946 26.8881
lfingers 7.12502
lthumb -7.17432 56.7465
rfemur -21.6695 11.0825 17.2534
rtibia 28.4933
rfoot 2.65862 -8.95556
rtoes 5.34437
lfemur 2.71003 6.45194 -23.7222
ltibia 48.124
lfoot 5.86386 -5.09633
ltoes -28.3531
841
root 14.5861 17.8286 3.5368 -184.04 8.63823 -182.215
lowerback 6.69965 -4.30486 -0.504143
upperback 1.59323 -5.5904 2.04176
thorax -1.84352 -2.73402 2.82788
lowerneck -1.16834 -9.46883 -0.265632
upperneck 27.2611 -11.1481 0.368515
head 8.72694 -4.37734 -0.549303
rclavicle -1.98785e-015 3.4191e-014
rhumerus -39.9449 -11.3652 -71.7527
rradius 25.9118
rwrist 18.693
rhand -16.7071 10.9184
rfingers 7.12502
rthumb 9.518 -18.8467
lclavicle -1.98785e-015 3.4191e-014
lhumerus -23.9098 3.45788 82.7529
lradius 25.5562
lwrist 5.06749
lhand -35.5845 24.104
lfingers 7.12502
lthumb -8.70881 53.9044
rfemur -20.9994 11.8268 17.3972
rtibia 28.0692
rfoot 2.68229 -9.81702
rtoes 6.94643
lfemur 1.64437 6.63683 -23.3303
ltibia 50.2779
lfoot 8.26156 -5.53809
ltoes -25.9186
842
root 14.6057 17.85 3.39771 -184.166 8.50438 -181.602
lowerback 6.85192 -4.51137 0.0318625
upperback 1.57199 -5.80523 2.26851
thorax -1.9689 -2.83467 2.79593
lowerneck -1.11645 -9.54207 -0.185666
upperneck 27.4547 -11.2498 0.443975
head 8.78641 -4.39225 -0.544584
rclavicle 4.91992e-014 -3.81667e-014
rhumerus -40.1659 -10.9729 -71.8673
rradius 26.6167
rwrist 17.7952
rhand -16.7062 8.80727
rfingers 7.12502
rthumb 9.51885 -20.9577
lclavicle 4.91992e-014 -3.81667e-014
lhumerus -24.2334 3.61192 82.7397
lradius 24.671
lwrist 3.90041
lhand -36.877 23.2245
lfingers 7.12502
lthumb -9.956 52.969
rfemur -20.1298 12.4296 18.1305
rtibia 27.5577
rfoot 2.67466 -10.6794
rtoes 8.41773
lfemur 0.609181 6.76905 -22.4311
ltibia 52.4515
lfoot 12.4861 -5.85974
ltoes -13.6073
843
root 14.6211 17.8745 3.2721 -184.108 8.52994 -180.57
lowerback 6.95605 -4.67093 0.998026
upperback 1.62611 -5.90842 2.607
thorax -2.02852 -2.87543 2.62673
lowerneck -1.37157 -9.63696 -0.0451886
upperneck 27.6463 -11.4471 0.626492
head 8.90496 -4.4413 -0.537959
rclavicle 4.37326e-015 -3.49861e-014
rhumerus -39.5129 -13.0856 -70.5246
rradius 25.081
rwrist 19.3599
rhand -17.253 12.5828
rfingers 7.12502
rthumb 8.99123 -17.2056
lclavicle 4.37326e-015 -3.49861e-014
lhumerus -24.317 3.27439 82.8762
lradius 23.7414
lwrist 3.51301
lhand -35.9544 23.6458
lfingers 7.12502
lthumb -9.06576 53.431
rfemur -19.4427 12.8316 19.3338
rtibia 27.0564
rfoot 2.66118 -11.2102
rtoes 9.22887
lfemur -0.70088 6.91014 -21.0957
ltibia 54.6399
lfoot 11.7272 -5.97852
ltoes -21.1055
844
root 14.6319 17.8942 3.14461 -184.101 8.27997 -180.273
lowerback 6.88862 -4.86362 1.30764
upperback 1.71424 -6.13027 2.71136
thorax -1.9134 -2.98154 2.57077
lowerneck -1.94966 -9.82817 0.00701156
upperneck 28.1869 -11.7968 0.904243
head 9.2221 -4.53619 -0.521612
rclavicle -4.70623e-014 5.24792e-014
rhumerus -39.5837 -13.315 -70.4287
rradius 25.5578
rwrist 17.8852
rhand -17.4858 15.3744
rfingers 7.12502
rthumb 8.76661 -14.4235
lclavicle -4.70623e-014 5.24792e-014
lhumerus -24.2168 3.05537 82.9349
lradius 22.9588
lwrist 3.68393
lhand -34.1209 24.1469
lfingers 7.12502
lthumb -7.29628 54.0011
rfemur -18.735 12.8868 19.6901
rtibia 26.4806
rfoot 2.63015 -11.5583
rtoes 9.52921
lfemur -2.07494 6.82015 -20.6477
ltibia 56.7614
lfoot 13.1962 -5.85015
ltoes -17.5186
845
root 14.6386 17.9048 3.02191 -184.24 8.26534 -179.966
lowerback 7.04431 -4.97419 1.63822
upperback 1.75812 -6.2304 2.82816
thorax -1.97343 -3.02474 2.53009
lowerneck -2.66873 -10.0948 0.070408
upperneck 29.0231 -12.1888 0.940839
head 9.6596 -4.64788 -0.605559
rclavicle -5.38209e-014 -5.56597e-015
rhumerus -39.5981 -12.104 -71.3365
rradius 27.0087
rwrist 15.7204
rhand -17.8199 10.7557
rfingers 7.12502
rthumb 8.44414 -19.0555
lclavicle -5.38209e-014 -5.56597e-015
lhumerus -24.2937 3.19953 82.9545
lradius 22.2692
lwrist 3.41975
lhand -34.0655 22.5519
lfingers 7.12502
lthumb -7.24281 52.408
rfemur -17.9224 13.1711 20.1022
rtibia 25.9601
rfoot 2.68604 -11.8378
rtoes 9.22769
lfemur -3.21836 6.98596 -20.2165
ltibia 58.766
lfoot 10.5112 -4.95275
ltoes -21.2701
846
root 14.6407 17.9146 2.90191 -184.182 8.62144 -179.019
lowerback 7.05914 -5.01647 2.67294
upperback 1.79376 -6.17013 3.1213
thorax -2.02428 -2.98141 2.25971
lowerneck -2.37171 -10.1666 0.385185
upperneck 28.8357 -12.2915 0.880363
head 9.51024 -4.67889 -0.662997
rclavicle 1.31198e-014 -6.83819e-014
rhumerus -39.5423 -12.2334 -71.2133
rradius 27.3461
rwrist 15.4725
rhand -18.1945 10.2671
rfingers 7.12502
rthumb 8.08258 -19.5583
lclavicle 1.31198e-014 -6.83819e-014
lhumerus -24.3005 3.51744 82.9398
lradius 21.3703
lwrist 2.72105
lhand -34.6402 21.1999
lfingers 7.12502
lthumb -7.79746 51.0361
rfemur -17.382 13.4792 21.2359
rtibia 25.7169
rfoot 2.69589 -11.7737
rtoes 8.3446
lfemur -4.39843 7.43299 -19.1009
ltibia 60.5958
lfoot 10.6444 -4.61231
ltoes -19.9218
847
root 14.6393 17.9311 2.77627 -184.255 8.63391 -178.448
lowerback 6.99808 -5.20029 3.34343
upperback 1.85835 -6.34009 3.30792
thorax -1.9728 -3.05478 2.09132
lowerneck -1.82279 -10.13 0.504828
upperneck 28.4068 -12.2646 1.03407
head 9.2576 -4.66545 -0.589428
rclavicle -2.5842e-015 2.70347e-014
rhumerus -39.2363 -12.2632 -71.3495
rradius 28.7182
rwrist 17.3165
rhand -15.3404 0.175171
rfingers 7.12502
rthumb 10.8364 -29.5253
lclavicle -2.5842e-015 2.70347e-014
lhumerus -24.1858 3.46919 82.9415
lradius 20.2722
lwrist 2.24865
lhand -34.1137 21.7217
lfingers 7.12502
lthumb -7.28934 51.5761
rfemur -16.6912 13.1768 21.9664
rtibia 25.5306
rfoot 2.52603 -11.4994
rtoes 7.55439
lfemur -5.41179 7.45626 -18.4951
ltibia 62.1612
lfoot 5.92743 -3.34345
ltoes -30.6119
